<svg width="103" height="59" xmlns="http://www.w3.org/2000/svg" xmlns:xlink="http://www.w3.org/1999/xlink"><defs><filter x="-4.1%" y="-3.6%" width="108.2%" height="114.5%" filterUnits="objectBoundingBox" id="a"><feOffset dy="2" in="SourceAlpha" result="shadowOffsetOuter1"/><feGaussianBlur stdDeviation="1" in="shadowOffsetOuter1" result="shadowBlurOuter1"/><feColorMatrix values="0 0 0 0 0.450980392 0 0 0 0 0.450980392 0 0 0 0 0.450980392 0 0 0 0.231889205 0" in="shadowBlurOuter1"/></filter><path d="M98.105 0c0 12.772-.156 22.003-.469 27.69-.39 7.086-4.843 13.66-9.695 16.354C86.457 44.867 73.477 48.519 49 55c-13.142-3.5-22.952-6.174-29.43-8.024l-.706-.202c-5.077-1.458-7.942-2.368-8.595-2.73C5.417 41.35.963 34.324.574 27.239.274 21.784.118 13.207.106 1.51V.52L0 0Z" id="b"/></defs><g fill="none" fill-rule="evenodd"><g transform="translate(2)"><use fill="#000" filter="url(#a)" xlink:href="#b"/><use fill="#FFF" xlink:href="#b"/></g><path d="M66 30.963V9.735c-17.105-1.653-30 0-30 0v21.228C37.36 45.346 50.884 47.033 50.983 47 53.436 46.603 64.74 44.32 66 30.963Zm-25.16 5.29c.265.199.596.265.895.397.364.959 0 1.885-.2 1.488-.364-.661-.53-1.223-.695-1.885Zm0-10.415c-.033-.033-1.923 1.157-3.15.595.896-.496 4.045-2.48 4.907-3.042.397.099.563-.066.696-.132-.332.033-1.426.198-.862-.794.199.86 1.724.066 2.287-.066 1.525-.364 1.525 1.29 1.392 1.95-.033.265.465.43.73.397-.431 1.059-1.194.067-1.26.463-.033.166-.53.298-.53.695 0 .562.232.264.232.694.033.43-.166.1-.133.562.066.728 1.293-.099 1.79.1.265.099.431.33.663.264.067-.066.033-.33.033-.43-.033-.231-.464-.264-.663-.562-.165-.264.2-1.091.398-1.356.299 1.356 1.558.926 1.757 2.381.133.397-.43.86 0 1.521-.331.33-.73 1.885-.033 2.612-.133.33-.265 1.091.365 1.554-.2.463-.166.992 0 1.554-.398 0-.299-2.182-2.652-2.281-.067-.033-.067.264 0 .364.298.496.663.463.563 1.62-.033.397-.265-.066-.398-.166-.298-.264-.497-.297-.63-1.09-.96.76-.861 1.653-.795 2.115 0 0-.199-.562-.464-1.157 0-.033.961-1.223 1.127-1.488 1.989-3.57-1.293 1.158-1.293 1.124-.166-.396-.331-.76-.43-.86.032-.032.563-.66.828-1.157 1.525-3.174-.928 1.059-.995.992-.198-.165-.331-.363-.464-.297-.033.496-.132.43-.1.926-.264.33-.795.892-1.192 1.157 0 0-.1-.893-.067-.926.2-.231.962-1.058 1.094-1.29 2.52-3.934-1.193.96-1.193.893-.033-.165-.232-.43-.431-.628 0 0 .829-1.124 1.027-1.52 1.525-3.142-1.226 1.388-1.26 1.388-.065-.066-.099-.066-.165-.1-.066-.032.1-.892.199-1.421.199-1.058-.365-.199-.497 1.455-.133.033-.498.066-.63.165.1.43.199.1.365.53.232.495-.299 1.355.165 1.95.166.231.2.198.166.364-.298-.033-.464-.033-.663.198-.365-1.587-.331-2.348-.265-3.968.033-.727.265-1.851.166-1.851-.067-.033-1.757 4.265-2.155 5.092-.696-.232.43-3.935 1.89-5.72.132-.563-.763.561-1.293 1.024-.498.43-1.127.96-1.79.76.861-.925 2.85-2.644 3.082-3.074.2-.364-1.359 1.157-2.983.595 1.06-.53 3.514-1.786 3.514-2.678Zm2.95 8.068c0 .396-.033.694.1 1.09.198.596.099.43-.166.2-.2-.232-.398-.398-.497-.662 0-.199.132-.199.563-.628Zm3.945-9.655c-.232-.397.298-.794.298-.794 0 1.124 1.459.364 2.221.727.199.1.298.232.398.43-.862-.595-2.387.562-2.917-.363Zm-8.586-9.127c-1.293 0-1.26-1.95 0-1.95 1.293 0 1.293 1.95 0 1.95Zm0 3.902c-1.326 0-1.326-1.95 0-1.95 1.293 0 1.293 1.95 0 1.95Zm1.326-5.323h1.127v1.124h-1.127v-1.124Zm0 3.901h1.127v1.125h-1.127v-1.125Zm10.31 3.042s-1.194-.628-2.586-.727c-1.36-.1-4.077.992-6.166.86v-9.226s2.387.331 3.381-.066c3.348-1.29 5.404.166 5.404.166v8.993h-.033Zm2.32 1.488c.066.331-.265.43-.265.43.497.132.73-.165.829-.364.198.794-.63.827-.862.893 0 0 .397.132.43.397.067.661.498.628.597.562 0 .066-.165.496-.63.132-.099.067.133.199.166.53.066.43.033.826.53 1.058-.298.231-.662-.397-.696-.298-.033.1.431.298-.066 1.488-.232-.132-.1-.1-.365-.43-.198-.165-.265-.198-.099.066.298.364.365 1.19.265 1.422-.232-.1-.166-.298-.464-.562-.033.1.1.661.398.926.497.463.696 1.025.696 1.124.033.43-.1.959-.133 1.52-.232-.032-.464-.727-.497-.693-.066.033.033.694.497 1.124.233.661.133.992.067 1.025-.067.033-.332-.662-.464-.53.663 1.654.199 2.25.033 2.778-.133-.529-.2-.926-.365-1.52-.364.264-.43.694-.895 1.09 0-.694-.398-2.314-.696-2.711 0-.033-.564 1.455-.829 2.15-.331.859-.364 1.917 0 2.777-.795-1.158-.895-3.307-.199-3.571.067-.166-.033-.662-.198-.595-.034.231 0 .462-.233.694-.53-.165-.298-.827-.232-1.025.697-.827.266-1.025.232-.992-.066.198-.132.43-.364.496-.431-.76-.166-1.984.696-2.877.033-.33-.365.265-.663.232-.066-.662.166-1.753 1.36-1.819-.233-.066-.366-.1-.399-.298.365-.066 1.492-.132 1.326-1.025-.1.1-.132.265-.43.463-.2.133-.432.133-.531-.033.53-.165.365-.826-.332-.628-.198.066-.53-.165-.53-.397.166.166.464.033.63-.066.762-.496 1.26.232 1.359.397.033 0 .331-.728-.762-.926-.1-.264-.332-.694-1.094-.661-.232-.86-.995-.43-.962-.033-.795-.595 0-1.323.332-1.422.232.033.166.727.563.595.1-.033-.298-.496-.165-.694.364-.199.364.264.53.099.1-.298.43-.463.73-.496.762-.265 1.392.628 2.154.198Zm7.26-1.355c-1.757.099-5.37-.893-6.299-.893-1.922 0-2.817.727-2.817.727v-8.96s2.519-1.158 4.342-.496c2.221.826 4.807.463 4.807.463l-.033 9.159Zm2.32-3.538c.961-.133 1.127.992 1.127.992-.232-.199-.73-.265-1.027-.067-1.094.695-2.056.695-2.056.695v-1.753c-.033.033.166.397 1.956.133Zm1.16-2.381c0-.066-.033-.132-.033-.232-.033-.165-.53-.264-.862-.132-.497.232-1.723.926-2.188.794v-1.753c1.128.496 1.558.033 1.923.033 1.094 0 1.16 1.025 1.16 1.025-.033.133-.033.199 0 .265Zm-1.26 18.02c-.33.1-1.193.43-1.392.761.1-1.852-.497-3.67-.696-4.1-.364-.86.166 1.984.2 2.645 0 .033-3.084-3.968-1.227-.893a5.334 5.334 0 0 0 1.226 1.323c0 .562-.033.959-.132 1.257-.2.165-4.21-5.324-1.99-1.521.266.462 1.89 1.884 1.857 1.917-.1.232-.298.53-.53.76-.034-.032-.929-.694-.929-.727-.066-.43-.066-.826-.596-.529 0 0-1.99-2.281-1.061-.694.398.694.663.794.762.893 0 0-.298.43-.397.86-.034.165-1.724-1.852-1.061-.563.199.397.961.86.961.893a5.636 5.636 0 0 1-.232.694c-.1.199-1.591 1.39-1.558 1.39 0 0 .298-.927.928-1.39.365-.264.365-.198.597-.363 0-.133-.133-.364-.298-.43-.2-.066-.895.066-.895.066.066-.33-.232-1.091-.232-1.918-.266.033-.73.43-.83.662-.066 1.355-.364.958-.662 1.95-.299-.396.033-.992-.265-1.388-.398-.53-.464-.893-.53-1.554.099-.067.496-.496.132-1.488-.066-1.521.63-2.083-.597-3.142.1-.033.166-.793.166-.793.895.463.73-.562 1.06-.76.564-.331.465-.662.2-1.059 1.59.463-.067 1.521.63 1.554.53 0 .861-.099 1.093-.463.232-.363-.033-.595.63-1.19.066-.066.232-.463-.298-.562-.133-.033 0-.463 0-.463-.431.364-.564.86-1.227.53-.364-.166-.563 0-.729.065 0 0-.066-.297.232-.397.762-.264.928-.562.895-.694-.1-.397-.133 0-.1-.397 0-.165.2-.397.365-.562.497-.595.862-.397.995-.33.298-.232.331-.199.63-.331.464-.199 1.491.132 2.055.397.265.132.596.198.928.132 0 .165-.133.264-.232.297-.166.067-.398 0-.365.133 0 .066.265.099.398.132.829.231 1.923.992 1.227.827-.1-.033.53.463.96 1.058l1.592 1.554c-.066.099-.63 0-2.42-1.653-.265.231 2.155 2.05 3.183 3.967-.1.067-1.326-.396-1.79-.86-.697-.727-1.492-2.545-1.824-2.28-.033 0 1.326 2.115 1.99 3.372.33.628.629 1.52.629 2.215.1 3.373-.398 3.108-.398 3.108-.795-2.645-1.16-5.72-2.32-7.142-.464-.562 1.226 2.48 1.293 5.225Zm-3.48 3.01c-.365.297-.597.43-.497.264.1-.165.165-.33.199-.463l.298.199Zm-.232-.397c.066-.298.066-.463.133-.728 0-.099.033-.099.033-.198 0-.033.762.628.828.661-.198.232-.364.33-.53.496-.199-.099-.497-.198-.464-.231Zm2.486.86c-1.06 1.058-2.685.66-3.945 1.223-1.16.43-1.989 1.488-3.182 1.752-.365.1-.398.298-.199.298.133 0 .862.76 2.022.165.398-.198 1.625-.86 1.823-.926-.663.629-.994 1.19-1.59 1.521-.365.199-1.824.728-3.282.43-.663-.132-1.16.463-.995.463.332-.099.73-.033.961.265.431.33 1.028.76 1.558.132.166-.198 1.028-.628 1.79.165-.828-.033-.762 1.455-2.353 1.29-.597 0-1.89-1.356-2.254-.926-.663.727 1.425 1.422.53 2.348-.795.826-1.79-.662-1.79-.662.497.199 1.425.364 1.028-.463-.166-.33-.464-.628-.464-1.223-.067-.298-1.923 2.38-3.15 1.157-.497-.463-1.458-1.52-2.353-1.917 2.353-.199 2.685.727 2.817.892.763.992 1.426 0 1.592-.198.232-.265.596-.661.464-.728-.895-.43-1.956-.529-2.718-.165 1.657-2.281 2.95-.132 2.95-.132.166.1-.033-1.356-1.69-1.422-1.028-.066-1.923.86-2.62.86-.563 0-2.32-1.158-2.718-2.216 1.028.76 2.32 1.19 3.116.695 1.525-.893 3.415.463 3.514.297-.43-.33-1.392-1.62-3.978-.892-.994.562-1.425-.43-2.055-.43 1.06-.926 1.79-.463 2.155-.43.099 0-.431-.43-.796-.463-2.884-.298-4.707-1.091-4.707-1.091s.232-.562 1.458-.166c0 0-1.094-.66-1.094-1.554.034-.529.299-1.124-.099-1.554 1.657-.066.497 2.249 1.657 2.844.034 0-.331-.562.166-.992.232.694.829 1.025 1.26 1.157.1-.066.232-.264.232-.264-.431-.728-.497-1.587-.365-2.546h.033c.1 0 .266.33.365.562.232.529.232 1.256.73 1.885.265.33.43.694.662.86.1-.232.033-.662 0-.761-.066-.397-.298-1.091.365-1.687.331.893.73.662.796 1.092.066.595.066.529 0 .992.033.66.63.826 1.127 1.256 1.193.628 1.955.992 2.486 1.819.265-1.39-3.48-1.654-3.017-4.332-.066-1.058.133-1.157-.63-1.819 1.492.034 2.32 2.513 2.387 2.943.166.827.663.86 1.326 1.951.1.033-1.226-2.877.365-5.356 0 0 .53 1.29.298 2.149-.166.496 0 1.058.033 1.389.033.33-.066-1.19 1.061-1.951.066.562.63 1.455.1 2.38-.63 1.158-.664.728-.697 2.15.067-.033.232-.96.663-1.521.928-1.125.265-1.753 1.16-2.745.067.496.2.298.266.728.132.992-.928 2.05-.696 2.017.265-.033.696-.265.828-1.025 0 0 .365.694.033.925-.63.397-.762.86-.663 1.356.498-.595 1.194-1.256 1.061-2.116.067-.53.63-.728.73-1.918.033-.198.232-.43.43-.562-.099.661.431 1.356-.165 2.182.132.066.63-.628 1.392-.396-1.492.264-1.06 1.884-2.188 2.612-.331.231-.298.463-.398.496 1.028-.066 1.79-1.257 1.923-1.356 1.028-.694 1.227-.794 1.657-1.918.166-.43.034-.595.597-1.19.232.562-.1 1.72-.199 1.984-.199.529-.828.992-.696.992 2.718-1.19 2.685-2.017 3.348-2.877.2-.33 1.16-.893 1.525-.959-.1.166-.464.496-.497.794-.033.595-.232.959-.53 1.455.165.198.497-.397.828-.1-.364.232-.563.728-.895 1.025Zm.464-.166c-.166.794-.43 1.521-.928 2.216-.331.496-.464-.463-.199-1.356.431-.199.829-.496 1.127-.86Zm-2.088-20.17c-.066-.033-.2-.033-.265-.033-.067 0-.133.132-.034.132.067.033.2.033.299.033.1.034.066-.099 0-.132Zm-.299.397c.067.033.2.033.299.033.066 0 .066-.132 0-.132-.066-.033-.2-.033-.265-.033-.1 0-.166.099-.034.132Zm0 1.72a4.473 4.473 0 0 0-.364-.298c-.1.066-.265.198-.365.264a1.862 1.862 0 0 0-.364-.363c-.1.066-.398.33-.498.396.166 0 .431.067.431.232v1.091c.1.033.232 0 .398 0v-1.19c.066-.033.1-.066.133-.1.066.034.232.265.364.298.067-.066.265-.231.332-.298.1-.033 0-.099-.067-.033Zm-.497-1.356c.1-.166.232-.463.232-.695 0-.264-.165-.694-.596-.826-.498.165-.83.595-.83 1.058 0 .264.233.86.73.86.166-.133.298-.298.464-.397Zm-.298.099c-.1-.033-.431-.298-.53-.53-.1-.264-.1-.561.198-.76.232.1.498.298.53.496 0 .298-.066.629-.198.794Zm-.033-2.116.364-.397s-.165-.132-.265-.232c0-.099 0-.892.033-.925-.265-.232-.464-.265-.596-.265-.232.033-.464.33-.53.43-.067.066-.034.165 0 .198.032.033.099.067.165.1 0 0-.033 0-.033-.033-.1.099-.265.363-.265.562 0 .198.165.463.298.562.133-.1.331-.265.597-.33.066.164.132.264.232.33Zm-.2-.926c-.165-.066-.53-.232-.662-.33-.033-.034-.033-.034 0-.1.066-.132.166-.231.232-.231s.43.198.398.297c.033.066.033.232.033.364Zm0 .562c-.099 0-.165.033-.298.1-.099-.067-.364-.398-.165-.728-.033 0-.067-.033-.067-.033.166.099.365.198.53.231v.43Zm-1.06-1.653c-.1 0-.663 0-.663-.033-.033-.133-.066-.265.033-.496.033-.1-.033-.133-.1-.033-.032.099-.33.496-.629.628-.166.066.199.198.166.198 0 .397.066.96.132 1.19.067.133.2.364.332.298.066-.033.232-.33.265-.397.1-.066 0-.198-.066-.099-.067.066-.133-.033-.166-.099s-.1-.926-.066-.926c0 0 .696-.099.762-.099.066.033.066-.132 0-.132Zm-1.89 1.554.299-.364c-.199-.033-.298-.066-.431-.231v-.893l-.298-.298h-.1l-.464.397c-.033.066.066.066.133 0l.331.198V14c.033.1.1.199.232.33h.299v-.032Zm-.231-2.017.165-.132v-.232l-.199-.198-.199.165v.265l.133.132h.1Zm-.73-.265c-.132 0-.53.033-.663.033-.132.033-.132.1-.033.1.133 0 .133.033.199.198s-.232.893-.298 1.058c-.1-.132-.398-.794-.398-.893 0-.066.132-.132.199-.132.1-.033.1-.1.033-.132-.232-.033-1.094-.1-1.227-.133-.1 0-.165.1-.033.1.133 0 .265-.033.431.165.166.231.696 1.389.829 1.885.066-.1.597-1.654.63-1.819.033-.165.165-.33.298-.364.166 0 .166-.066.033-.066Zm-2.52 3.737c0 .628.266.694.564.86.266.165.73.132 1.094.032.133-.033.2-.033.2.067 0 .066.099.066.099 0v-.662c0-.066-.1-.066-.1 0 0 .1 0 .133-.1.232-.231.363-.828.33-1.16-.1-.099-.132-.198-.33-.099-.396.133-.033.53.033.763.066.165 0 .497.033.563.066.033.033.1.066.1 0v-.397c0-.066-.067-.033-.1 0s-.43.1-.563.133c-.166.033-.63.066-.73.033-.132-.033-.1-.298.033-.43.332-.43.995-.397 1.227-.033a.444.444 0 0 1 .066.264c0 .066.1.066.1 0v-.76c0-.066-.1-.066-.1 0 0 .033-.1.066-.199.033-.199-.066-.795.033-1.06.165-.266.132-.597.43-.597.827Zm.1 1.124c0 .198.067 1.752.067 1.984 0 .132.165.264.298.364.066-.1.232-.331.365-.43.066-.066.033-.1-.034-.1-.132.067-.232 0-.265-.132v-1.686c-.066.033-.331.033-.43 0Zm1.293 1.29c-.1.099-.298.363-.298.529 0 .198.1.363.199.496.199-.133.298-.331.63-.43.033.132.132.165.265.264.066-.066.331-.397.398-.463.066-.066.033-.099-.067-.066-.1.066-.132.033-.298-.132 0-.1 0-.76.033-.794-.133-.132-.265-.33-.398-.33-.232.033-.497.396-.563.496-.067.066 0 .363.033.396l.066.033Zm.166.132c.133.066.199.033.365 0v.297c-.1.066-.2.1-.299.166-.1-.1-.232-.166-.066-.463Zm-.1-.562c.067-.133.133-.133.2-.133.066 0 .298.166.265.265v.364c-.166.033-.299.033-.465-.133-.033-.033-.033-.297 0-.363Zm1.36-.265c-.133.066.198.198.165.198 0 .397-.066.992.067 1.19.066.133.265.2.397.166.133-.033.266-.297.332-.33.1-.067 0-.133-.066-.067-.067.067-.266.033-.299-.033-.033-.066-.033-.892 0-.926h.299c.066 0 .066-.165 0-.165-.1 0-.266-.033-.299-.066-.033-.066 0-.33.067-.43.066-.099-.034-.165-.1-.033s-.298.364-.563.496Zm.066-1.72c0 .364-.166.728-.365.927.365-.1.398-.298.597-.563.1.166.298.364.464.43.1-.066.398-.397.464-.463-.199-.066-.597-.264-.696-.496-.066-.165-.066-.231.033-.363.066.099.564.33.796-.066-.232-.1-.464-.232-.53-.364-.067.066-.266.297-.398.364-.034-.133-.233-.265-.398-.298-.067.066-.431.33-.597.43-.066.033-.033.132.033.099s.2-.132.332-.198c.066.066.265.231.265.562Zm1.69.067c.034-.232.2-.298.266-.364.1.1.199.232.364.232.133 0 .299-.067.332-.133-.133-.099-.398-.396-.464-.43-.133.067-.763.397-.796.761-.066.529.1.628.332.926.132.165.364.165.464.165.1-.066.497-.463.563-.496.033-.033-.033-.1-.066-.033-.033.033-.033.066-.1.066-.066 0-.331.066-.497-.033-.199-.132-.43-.364-.398-.661Zm-.298 1.686c-.1.1-.232.199-.398.364.133 0 .232.033.266.165.066.1 0 .595.033.794 0 .165.132.231.265.364.132-.034.53-.199.696-.298 0 .165.166.33.298.364.067-.066.166-.133.266-.232-.1-.066-.1-.066-.133-.231-.033-.133 0-.662 0-.893a2.078 2.078 0 0 0-.365-.397c-.1.1-.232.199-.397.397.132 0 .364.033.364.132 0 .132.033.397 0 .628-.033.232-.63.133-.63-.033 0-.165.033-.595.033-.793-.066-.132-.132-.199-.298-.33Zm-3.911 5.324c-.332-.066-.597-.298-.929-.43-.43-.165-.895.165-.895.231 0 .133.133.166.464-.033a.379.379 0 0 0 .034.562c-.1-.033-.266-.066-.398-.099-.033.1.132.165.199.199.63.231.994-.331 1.525-.43Zm-.995.297s.166-.165.166-.297c0-.166-.166-.265-.166-.265.133.033.431.199.564.298l-.564.264Zm-3.182-4.397.165-.199c-.198-.033-.099-.033-.198-.132v-.76l-.232-.364h-.1l-.398.363c-.1.1 0 .133.1.033l.265.133v.793c.033.1.1.133.232.265l.166-.132Zm.066-2.646c.133.364.431.496.663.496.066-.132.199-.33.265-.396.1-.133 0-.232-.066-.067-.066.133-.365 0-.464-.099-.133-.132-.232-.496-.133-.595.1-.132.265-.066.497-.066.133 0 .166-.132.2-.198-.067-.034-.166-.1-.299-.166-.133.1-.365.265-.43.33-.134.067-.366.398-.233.761Zm.564 2.017c-.133.133-.232.298-.232.496 0 .199.066.364.265.463.165-.132.398-.264.596-.33.1.132.266.198.365.297.066-.066.265-.264.332-.297.066-.067 0-.133-.067-.067-.033.067-.199.034-.232-.066 0-.066-.066-.926-.033-.959-.133-.132-.331-.43-.464-.43-.199.034-.53.331-.597.397-.066.066 0 .43.067.496-.034-.033 0-.033 0 0Zm.53.066a.582.582 0 0 1-.464-.198c-.033-.033-.066-.231-.033-.298.066-.132.066-.165.132-.165.067 0 .365.199.365.298.033.099.033.231 0 .363Zm-.398.034c.133.099.232.099.398.066v.231c0 .033.033.066.033.1-.1.032-.199.065-.298.099-.1-.067-.398-.265-.133-.496Zm1.16-1.588.166-.198c-.199-.033-.199-.033-.298-.1v-.892l-.166-.231h-.1l-.397.363c-.1.1 0 .133.1.033l.198.133v.826c.033.1.1.133.232.265l.265-.199Zm-.298-3.075c-.066 0-.199.133.265.199.067-.033.166-.199-.265-.199Zm0-.297c-.066 0-.199.198.265.198.1 0 .133-.165-.265-.198Zm.1 1.388-.2-.198-.198.165v.232l.132.132h.133l.133-.132v-.199Zm-.398-1.884c-.133-.1-.265-.33-.597-.33-.331 0-.696.297-.829.462-.165.231.033.463.232.628a5.93 5.93 0 0 0-.497.463c.066.066.431.265.663.232.332 0 .597-.166.796-.331.331-.265.232-.53-.133-.727-.033-.034-.066-.034-.1-.034.233-.165.432-.297.465-.363Zm-.829.694c.1.066.232.1.331.165.166.1.1.298-.099.364-.199.1-.53-.165-.597-.264.067-.066.2-.166.365-.265Zm.331-.463c-.033.033-.099.1-.198.166h-.166c-.166-.034-.232-.166-.332-.265-.066-.1.133-.198.232-.198.1.033.332.165.464.297Zm-1.359.695a.623.623 0 0 1-.762-.364c.199-.199.53-.53.73-.695-.133-.132-.2-.33-.432-.33-.199 0-.696.231-.795.86-.067.595.464.925.928.925.132 0 .331-.198.43-.231.2-.1.133-.198-.099-.165Zm-.795-.463c-.133-.397-.067-.53.166-.728a.666.666 0 0 0 .265.265c-.133.132-.332.397-.431.463Zm-.564-.364c.1-.066 0-.132-.066-.066a2.406 2.406 0 0 1-.265-.298c-.067.066-.265.166-.365.232-.066-.1-.166-.1-.331-.232-.1.066-.299.199-.398.33.199.067.331.067.331.232V14.1c.1.033.232 0 .365 0v-1.223a.457.457 0 0 0 .133-.1c.066.034.165.2.265.265.066 0 .265-.132.331-.198Zm-1.525 2.05c-.199.033-.53.265-.596.463-.033.1 0 .397.066.43l.066.066c-.132.132-.265.231-.265.43 0 .198.166.363.332.43a.651.651 0 0 1 .43-.298c0 .132.034.265.133.33.066-.065.332-.33.398-.363.066-.066 0-.132-.066-.066-.034.033-.133-.033-.166-.066 0-.066 0-.926.033-.96-.1-.098-.232-.396-.365-.396Zm0 .86c-.232.165-.298.132-.464-.033a.4.4 0 0 1-.033-.331c.066-.1.199-.231.265-.231.067 0 .232.231.232.33v.265Zm0 .43v.132a.56.56 0 0 0-.165.066c-.1-.066-.498-.198-.232-.43.165.1.232.033.397-.066v.298Zm-.165-1.786c-.034-.033-.1-.1-.1-.165v-.629c0-.066-.132-.066-.132 0 0 .1 0 .232-.067.364-.232.33-.663.496-.961.066-.1-.132-.133-.363-.133-.496-.033-.198.133-.463.133-.496.398-.496.928-.132.961.066.033.133.067.298.067.397 0 .066.132.066.132 0v-.893c0-.066-.1-.066-.1 0 0 .133-.066.133-.165.1-.199-.066-.63-.166-.862 0-.232.132-.563.43-.563.793 0 .628.232.662.53.86.265.165.597.066.928-.033.133-.033.133.033.199.132.133.132.199.033.133-.066Zm-1.724.893c-.232.33-.332.86.033 1.157.166.132.332.265.696.198.066-.132.1-.198.232-.363a.85.85 0 0 1-.63-.133c-.364-.297-.265-.76-.132-.925.199-.298.497.132.53.198.066-.066.166-.198.299-.264-.1-.133-.2-.298-.266-.364-.265.066-.63.264-.762.496Zm.132 2.843c-.066.596.498.96.763 1.059.066-.133.199-.364.331-.53.1-.132 0-.165-.099-.066-.133.133-.497 0-.597-.165.166-.132.663-.53.862-.694-.132-.133-.331-.43-.364-.629-.2.166-.796.397-.896 1.025Zm.597-.628c.066.132.232.397.299.43-.133.132-.465.364-.564.43-.166-.232-.265-.562.265-.86Zm1.227-.231c-.133.099-.2.198-.365.33.066.1.199.199.232.364v1.058h.332c-.034-.132 0-1.058 0-1.223.066-.066.099-.1.198-.166.067.067.233.1.233.199s.033.562 0 .727c-.034.199-.034.364.099.562.1-.099.398-.297.464-.363s.033-.1-.066-.066c-.1.033-.1.033-.1-.034 0-.099-.033-.595-.066-.925 0-.331-.166-.397-.265-.463-.1.099-.299.231-.431.33-.133 0-.166-.165-.265-.33Zm1.26-.76c.099-.1.198-.232.231-.265.067-.066 0-.133-.066-.066-.066.066-.199-.067-.199-.067-.033-.066-.132-.793-.1-.793 0 0 .465-.066.531-.066.033 0 .066-.133 0-.133s-.43.034-.43 0c-.034-.066-.067-.33.032-.562.067-.099 0-.198-.033-.099-.033.1-.331.562-.53.628-.166.067-.133.1-.033.133.066 0 .165.099.132.099 0 .364-.066.826.067 1.025.099.132.298.231.397.165Zm1.59.165c-.066.099-.132.231-.331.297.1.1.232.199.332.265.099-.1.198-.232.298-.331a.498.498 0 0 1-.298-.231Zm-.729-.397c.133 0 .398.066.63.066.298-.033.564-.496.431-.893-.133-.364-.53-.297-.796-.364-.232-.066-.364-.231-.066-.396.332-.199.696.132.73.198.066.1.099.1.099-.033 0-.298-.033-.132-.033-.397 0-.1-.067-.1-.1 0 0 .1-.132.066-.199.066-.1 0-.364-.033-.596.1-.133.099-.464.33-.299.66.1.166.73.331.895.43.166.1.2.364.034.497-.2.165-.697.033-.796-.067-.1-.099-.133-.198-.166-.33.033-.232-.066-.232-.066-.1 0 .133.033.563.066.662.033.1.133.066.133 0 0-.1.033-.1.1-.1Zm-.663 1.322c-.132.1.133.232.133.199 0 .363-.033.76.066.959.066.132.332.198.365.099.033-.1.232-.33.265-.397.066-.066 0-.132-.066-.066-.133.132-.2.066-.332-.033-.033-.066-.066-.562-.033-.595 0 0 .265-.033.298-.033.034 0 .034-.133 0-.133-.066 0-.298 0-.298-.033-.033-.066.033-.43.066-.595 0-.1-.033-.132-.066-.033 0 .1-.265.562-.398.661Z" fill="maroon" fill-rule="nonzero"/></g></svg>
