<svg id="Layer_1" data-name="Layer 1" xmlns="http://www.w3.org/2000/svg" viewBox="0 0 250 208.29"><title>phoneix-v2</title><path d="M127.27,12.3s1.4-1.51,1.39-2.59a3.69,3.69,0,0,0-1.38-2.54,28.68,28.68,0,0,1,5,2.6Zm8.85-2.67v-.2c-3.09-.44-5.37-4-8.21-5-3.91-1.49-8.2,2.9-8.2,3.38,0,1.06,1.11,1.6,4.27-.39a3.55,3.55,0,0,0,.34,5.21,10.85,10.85,0,0,1-3.44-1c-.19,1,1.45,2.24,2.13,2.7,2.1.86,4,1.12,5.66.25,2.52-1.32,4.68-4.33,7.45-4.87m86,121.25a52.33,52.33,0,0,1-8.26,20c-3,4.39-4.25-4.15-1.65-12.4a24.57,24.57,0,0,0,9.91-7.64m-4.64.92c-9.65,9.54-24.12,6.09-35.52,11.2-10.34,3.77-17.82,13.34-28.65,15.75-3.19,1-3.72,2.63-1.68,2.57,1.19,0,7.79,6.87,18.36,1.55,3.52-1.78,14.48-7.89,16.34-8.24-5.93,5.66-8.91,10.71-14.22,13.7-3.24,1.82-16.46,6.56-29.64,4-5.84-1.14-10.34,4.25-8.85,4.13,3.13-.84,6.63-.41,8.74,2.35,3.83,3,9.37,6.74,14.14,1.17,1.58-1.85,9.15-5.79,16.27,1.44-7.57-.39-6.82,13.23-21.15,11.63-5.31,0-17-12.19-20.38-8.43-5.93,6.67,12.74,13,4.66,21.38-7.3,7.57-16-6-16-6,4.55,1.91,13,3.14,9.25-4.27-1.46-2.94-4.26-5.59-4.26-11-.64-2.71-17.34,21.53-28.38,10.58-4.34-4.31-13.14-13.74-21.1-17.34,21.09-1.79,24.3,6.66,25.31,8,6.75,9.11,13-.14,14.42-1.76,2.19-2.5,5.3-5.95,4.2-6.47-6.94-3.29-13.2-3.79-20.72-3.45-1.2.06-3.15.23-3.15.23a14.66,14.66,0,0,1,2.65-3c9.39-7.39,19.1-2.2,20-1.22,0,0-.32-6-12-7.49-9.17-1.18-17.25,7.07-23.62,7.06-5.18,0-20.87-10.62-24.56-20,9.13,6.84,20.65,13.08,27.91,8.74,13.64-8.15,31,1.83,31.79.36-3.82-3-12.51-14.67-35.94-8-9.24,2.63-12.92-3.88-18.51-4,9.5-8.44,16.08-4.15,19.4-3.89.79,0-3.22-6.3-6.56-6.32-27.18-.13-43.15-7.6-43.15-7.6s4.3-4.45,13.41-1.63c0,0-9.2-6-9.11-13.84.32-4.84,1.88-10.18-1.83-14.22,15-.62,4.36,20.37,14.91,25.78.23.09-2.9-2.62,1.79-6.57,2.19,6.16,7.35,6.95,11.12,7.94a1.9,1.9,0,0,0,1.78-.36,1.67,1.67,0,0,0,.2-2c-2.13-3.52-2.61-7-3-11.1a49.1,49.1,0,0,1-.19-11.42l.16-.09c.85,0,2.11,2.53,3.12,4.72,1.15,2.47,1.68,5.52,2.56,8.66a23.51,23.51,0,0,0,4,8.45c2.42,3.08,3.91,6.16,6.08,7.65a10.61,10.61,0,0,0,1.12-5c-.49-3.57-3.74-9.71,2.35-15.22,2.85,8.23,7.29,7.54,7.82,11.48.73,5.53,0,3.29.55,7.53s3.73,5.85,8.44,9.59c10.62,5.79,18.33,8.15,23,15.56,1.51-8.35-12.27-13-20.8-21.88-4.24-4.4-7.43-9.2-6.31-17.26.54-3.95.9-7.31-1-10.88a10.77,10.77,0,0,0-3.39-4.25c4.58.13,7.61,3.75,10.76,7.33a38.22,38.22,0,0,1,8.51,17.83c1.36,7.45,7,8.17,13.22,17.89.59.22-3.89-7.71-3.25-21.94a70.62,70.62,0,0,1,3-16.81,39.68,39.68,0,0,1,3.37-7.94,44,44,0,0,1,1.44,6.49,53.42,53.42,0,0,1,.25,11,43.12,43.12,0,0,0-.13,6.08c.18,2.22,1.07,5.17,1.2,6.62.26,3-.58-10.64,9.63-17.68.64,5.14,4.72,13.23,0,21.76-5.67,10.39-7.13,6.38-5.33,19.31-.08-.55,3.4-8.16,7.29-13,8.23-10.3.94-16.47,9-25.4.64,4.46,1.77,2.7,2.25,6.67,1.08,8.92-8.22,18.68-6.17,18.39,2.37-.34,6.17-2.4,7.44-9.17a17.41,17.41,0,0,1,1,3.86,5,5,0,0,1-1.21,4.31,39.39,39.39,0,0,0-2.9,2.92,10,10,0,0,0-2.52,9.41c2.8-3.36,7.76-6,9.73-10.07,1.23-2.53,1.44-6.78,1-9.75.52-4.68,5.22-5.7,6.23-16.57.17-1.8,1.26-4.27,3-5.23-.78,6.11,3,13-2.38,20.43,1.23.66,5.11-5.39,11.77-3-13.36,2.41-9.3,16.26-19.54,23-3.09,2-2.56,4.3-3.48,4.55,9.14-.51,18.58-9,19.81-9.81,9.59-6.23,12.09-9.82,14.6-19.89.69-2.73,1-4.61,1.74-6.83.41-1.19,1.49-2.41,3.08-4a11.68,11.68,0,0,1,.77,4.42c.05,5.27-2.57,10.3-3.16,12a35.66,35.66,0,0,1-5.58,9.55c-.58.65-.36,1.17,0,1,25.13-9.62,25.19-18,31.08-25.8,1.77-3,9.68-8.34,12.95-8.82-.8,1.62-4.21,4.36-4.36,7.31-.3,5.45-2.06,8.78-4.81,13.15,1.53,1.9,4.47-3.59,7.48-.83-4,1.32-5.75,5.75-8.84,8.36m-22.41-9.17a27.31,27.31,0,0,0,.89-5.15,6.47,6.47,0,0,0,.19-1.29c0-.27,6.08,5.57,6.46,5.82a24.42,24.42,0,0,1-3.39,3.84C198.09,124.83,195.06,122.87,195.12,122.63Zm1.41,5.67c-3.21,2.82-4.76,3.36-4.06,2a25.21,25.21,0,0,0,1.25-3.59C193.86,126.28,196.53,128.3,196.53,128.3ZM174.64,7.67c7-2.41,21.66-1.21,28,1.52a16.12,16.12,0,0,0,9.07.74c0,1.49-1.8,2.18-2.85,2.48-1.59.5-5.61,1-5.49,2.14.08.68,4.21,1,5.63,1.18,3.71.33,5.65.39,9.69,2.13a33.87,33.87,0,0,1,8,6,28.93,28.93,0,0,0-7.57-2.28,9.44,9.44,0,0,0-4.09.12s4.11,1.48,4.86,1.83A32.68,32.68,0,0,1,229.14,32l14.11,14.35c-.6.72-4.84.2-17.63-11.19q-2-1.72-4.18-3.82c-.63.57-.15,2.35,2.16,4.88,6,6.52,19.9,18.52,26.4,31.13-.78.54-10.8-4.1-14.85-8.28-6.24-6.46-14.62-22.35-17.57-19.94-.1,0-.09,1.76,1.32,4.1,3.73,6.18,12.2,18.18,16.58,26.38,3.05,5.71,5.56,13.91,5.76,20.08,1,30.43-3.6,28.09-3.6,28.09-7.12-24-10.45-51.83-20.84-64.68-1.52-1.87-2,.48-.22,5.39,3,8.54,10,24.87,10.47,40.67-2.71.91-9.93,3.48-10,4.49a42.55,42.55,0,0,0-.14-6.61,80.07,80.07,0,0,0-7.06-26.88c-1.31-3-2.71-1.73-2.44,1.86.42,5.62,2.81,15.33,3,19,0,.26-27.61-32.25-10.82-4.5C204,93.68,211.94,100.18,212,100.3c.3,3.2,0,3.59-.95,6.28-.76.6-8.19-7.07-14.63-14.57-8.13-9.49-18.22-14.54-4.52,4.08,2.92,4,17,16,16.87,16.27-.83,2-1.17,3.53-3.28,5.91-.36.4-8.71-6.6-8.76-7-.5-3.8.09-6.6-4.63-3.89,0,0-3.69-4.21-6.89-7.26-4.18-4-10-5.94-4.85,2a43.33,43.33,0,0,0,7.48,9s-1.49.94-2.38,4.92c-.18.79-3.82-2.64-6.88-5.58s-6.2-3.3-3.22,2.51c1.9,3.68,8.79,7.71,8.72,8a43.64,43.64,0,0,1-2.18,6.24c-.95,1.91-14.19,12.48-14.17,12.47s2.59-8.37,8.22-12.47c3.21-2.36,2.36-2.08,4.48-3.41,0-1.24-.36-3-1.91-3.56-1.93-.68-8.2.46-8.2.46.59-3.14-.86-11.36-.83-18.8-2.36.23-8.45,3.25-9.45,5.33-.73,12.33-2.77,7.19-5.27,16.06-2.72-3.72,1.48-6.88-1.18-10.36-3.68-4.79-2.75-6.49-3.3-12.38.86-.48,3.48-4.51.07-13.21-.28-6.83,1.11-11.63,1.2-15.92s-1.1-8.06-6.55-12.84c.91-.29.7-7.43.7-7.44,8,4.29,5.68-4.67,8.81-6.48,5-2.89,4.07-5.88,1.84-9.61,14.21,4-.64,13.77,5.79,14,4.66.14,7.79-1,9.82-4.18,2.16-3.32-.38-5.36,5.65-10.74.61-.54,2.2-4.13-2.58-5.11-1-.23,0-4.32,0-4.32-3.83,3.25-5,7.81-11.18,4.92-3.15-1.48-5.2,0-6.49.6a2.88,2.88,0,0,1,2-3.45c6.73-2.26,8.58-5,8-6.42a10.26,10.26,0,0,1-1-3.69C166.41,15.25,169.74,9.59,174.64,7.67ZM143.11,3.13a3.36,3.36,0,0,1-2.37,3.92,6.28,6.28,0,0,0,7.56-3.33c1.73,7.22-5.54,7.62-7.8,8.06,0,0,3.68,1.06,3.87,3.46.48,6.11,4.4,5.59,5.25,5.1-.14.74-1.35,4.43-5.76,1.1-.75.74,1.2,1.88,1.59,4.91.5,3.83.37,7.38,4.79,9.72-2.7,2.16-5.9-3.46-6.17-2.79s3.76,2.81-.73,13.41c-2.05-1.18-.9-.95-3.28-3.78-1.82-1.52-3.3-1.7-1.79.81,2.65,3.32,4,10.73,3.13,12.77-2.18-1-1.62-2.7-4.19-5.08-.24,1,.06,6.26,2.72,8.66,4.6,4.16,6.95,9,7,9.95.37,3.77-.68,7.31-1.13,12.18a4.64,4.64,0,0,1-3.48-2.73c-.6-1.23-1.6-3.21-1.82-3.06a4.07,4.07,0,0,0-.61,2.25,13.59,13.59,0,0,0,1.18,3.86c.73,1.59,2.85,3.45,4.41,4.91,2,5.89,1.1,8.15.56,8.36s-1.7-3-2.85-4.36c-.44-.52-3.75.13-3.52.52.41.68,1.42,1.73,2,2.57a15.33,15.33,0,0,1,2.19,3.8,31,31,0,0,1,1.16,5.72c.37,6.29-1.79,9.63-2.83,12.71-1.22-4.76-1.84-8.33-3.37-13.72a21.11,21.11,0,0,0-5,4.87c-.72,1.08-1.3,1.87-2.16,3.26a8.34,8.34,0,0,1-1,1.52,39.22,39.22,0,0,0-.24-4.79c-.93-7.06-3.71-16.86-5.93-19.58a194.27,194.27,0,0,0-7.34,19.3c-1.56,5.36-2.85,11.52-2.11,17.34a27.54,27.54,0,0,0,2.11,7.69,31.62,31.62,0,0,1-4.43-8.64c-3-10.12-1.25-21.75,3.59-23.75.54-1.39-.52-6.21-1.79-5.39a8.49,8.49,0,0,0-2.88,4.31c-4.63-4-2.42-5.88-1.3-7.29s2.43-2.23,3-3.19c3-5.16-.67-6.06-.92-5.89a6.4,6.4,0,0,1-3.57,3.93c-3.42-5.89-3-12.73,2.93-19.59,1-1.22,3.16-2.24,4.31-3.46.2-1.93-1.88-2.69-3.58-1.44a5.06,5.06,0,0,1-2.94,1.32c-.63-5.84.54-16,11.34-16.36-2.06-.61-3.16-1-3.66-2.71,3.26-.48,13.5-1.26,11.82-9.35-1,1-1.29,2.42-4,4-1.79,1.09-3.74,1.19-4.76-.39,4.75-1.58,3.18-7.37-3-5.66-1.9.52-4.68-1.47-4.82-3.68,1.38,1.39,4.18.36,5.8-.69,7-4.54,11.24,2,12.18,3.45.28,0,3.13-6.57-6.78-8.34-.83-2.31-3.09-6.39-9.82-5.88-2.22-7.83-8.92-4-8.7-.43C98.1,12.32,105,5.71,107.91,4.69c0,0,.1,3.18,1.52,4.74a4,4,0,0,0,3.85.66c.62-.22.69-1.62.17-2.64s-1.84-2.5-1.88-3.37l.35-.2c3.22-1.84,3.14,2.35,4.73.79.79-2.75,3.94-4.28,6.53-4.58,7.29-1,12.95,7,19.93,3M94.72,22.33c-2.15-3.67,2.56-7.17,2.56-7.17-.14,10.31,13,3.24,19.9,6.51a7.32,7.32,0,0,1,3.49,3.75c-7.39-5.12-21,5.28-25.95-3.09M59.05,110.8c-.58,3.67-.28,5,.75,8.56,1.67,5.42,1,3.79-1.28,1.93-1.8-2-2.87-2.57-3.74-4.92C54.57,114.7,55.19,114.39,59.05,110.8Zm-26.43-74-.2-.2c-.24,0-17.11,10.65-28.07,5.54,8.16-4.52,33.59-20.64,41.32-25.75,1.83.4,4.85.92,7.07.32s3.62-2.32,4.2-2.73c-2.95.18-14.87.91-9.92-7.87,1.91,7.87,15.65.63,20.58-.51C81.35,2.41,81.25,17.12,80.08,23.2c-.44,2.26,4.21,3.87,6.5,3.54-3.94,9.73-9.23.9-11.81,3.68-1.19,1.28-3.59,3.37-4.47,7-1,4.3-.46,5.94-.46,5.94a19.09,19.09,0,0,0,1.44,5.32c2.41,6.16,11.54-.88,16,.9,2.24.89,3.73,2.91,5.92,2.51.64-.53.35-3,.26-3.9-.23-2.09-4.09-2.34-5.89-5.19C86,40.52,89.37,33,91.18,30.84A14,14,0,0,0,94.75,38c2.93,3,4.51,3.41,8.26,5.91,1.72,1.14,3.52,2.65,3.87,5.33,1.09,3.68-5.09,11.1-1,17.08-3.06,3-7.17,16-.78,22.63-1.09,3-2.51,9.9,3.18,13.93-1.91,4.08-1.11,3.73.5,8.8-3.54,0-3.94-14.78-22.66-14.43-.5,0-.51,2.21,0,3.33,1.93,4.11,5.58,3.18,4.85,13.7-.25,3.6-2,.4-3.11-.59-2.57-2.27-4.55-2.58-5.67-10-8.62,6.77-8,13.45-7.85,17.46,0,0-1.29-3.53-3.47-8.86,0,0,9.18-11.24,10.86-13.62,13-18.35,3.61-12.4-3.39-3.18-4.63,6.11-9.7,11.62-9.7,11.62a13.26,13.26,0,0,0-1.81-3.79A128.51,128.51,0,0,0,76,91.85c12.13-18.91.5-9-6.23-.29C66.71,95.52,64,99.1,64,99.1a25.61,25.61,0,0,0-3.83-2.73c-.25,4.44-1.66,3.3-1.36,7.83a90.7,90.7,0,0,1-10.67,11.35s-.87-8-.64-8.29c1.74-2.12,8.38-9.54,9.94-11.61,15.79-20.93,6.42-16-1.08-7.05-5,6-9.92,13.53-10,13.39A6.85,6.85,0,0,0,44,99s6.89-10.54,9.13-14.34c9.07-15.45.37-10.5-5.23-1.85-4,6.2-7.27,13.76-7.39,13.69a6.66,6.66,0,0,0-1.35-.52S41,88.14,41.9,83.36c1.33-6.7-2.86-5.29-5.53,1.53C35.27,87.71,35,91.64,34.56,96c-1.28.2-4.18,2.27-4.18,2.27.76,4,1.59,1.84,2.8,4.86,1.88,4.66-2.66,11.24,1.52,16.77,1.61,2.13,2.58,2.36,2.26,3.76a7.87,7.87,0,0,0-6.74,3.4c-3.16-14.37-4-23.42-2.29-37.63.42-3.5,2.16-7.87,2.81-11.25.57-3,.13-5.2-.34-5.29-.3-.06-2.38,2.57-4.68,8-5,11.92-12.44,32.91-14.92,38.11-6.34-2.14,3.94-35.68,17-51.82.53-2.23-1-2.78-2.91-1-2.53,2.39-6,8-8.77,10.28-4.43,3.77-10,8.7-16.13,7,7.84-8.3,25.81-23.83,27.81-27.71.63-1.25-.95-1.26-3.93.39C18.91,59,10,64.34.82,61.17c9.53-5.12,31.76-16.48,31.8-24.4m-.15,95c2.46,1.67,5.36,2.41,8,3.54,3.3,8.62.08,17.09-1.76,13.57-3.24-6.15-4.52-11.27-6.25-17.11" style="fill:#fff"/></svg>